<?xml version="1.0" encoding="UTF-8" standalone="no"?><!DOCTYPE svg PUBLIC "-//W3C//DTD SVG 1.1//EN" "http://www.w3.org/Graphics/SVG/1.1/DTD/svg11.dtd"><svg width="48px" height="45px" version="1.1" xmlns="http://www.w3.org/2000/svg" xmlns:xlink="http://www.w3.org/1999/xlink" xml:space="preserve" xmlns:serif="http://www.serif.com/" style="fill-rule:evenodd;clip-rule:evenodd;stroke-linejoin:round;stroke-miterlimit:2;"><path d="M22.5,5.39l0,-5.39l-22.5,0l0,45c6.441,0 12.254,-2.713 16.357,-7.056c-5.724,-2.784 -9.673,-8.656 -9.673,-15.444c0,-9.019 6.972,-16.423 15.816,-17.11Zm8.842,1.67c5.72,2.785 9.665,8.655 9.665,15.44c0,9.015 -6.966,16.416 -15.805,17.109l0,5.391l22.5,0l0,-45c-6.443,0 -12.256,2.714 -16.361,7.06Z" style="fill:#0066b3;"/><path d="M35.558,22.5c0,-6.464 -5.248,-11.713 -11.713,-11.713c-6.464,0 -11.713,5.248 -11.713,11.713c0,6.464 5.248,11.713 11.713,11.713c6.464,0 11.713,-5.248 11.713,-11.713Z" style="fill:#0066b3;"/></svg>