<?xml version="1.0" encoding="UTF-8" standalone="no"?><!DOCTYPE svg PUBLIC "-//W3C//DTD SVG 1.1//EN" "http://www.w3.org/Graphics/SVG/1.1/DTD/svg11.dtd"><svg width="37px" height="45px" version="1.1" xmlns="http://www.w3.org/2000/svg" xmlns:xlink="http://www.w3.org/1999/xlink" xml:space="preserve" xmlns:serif="http://www.serif.com/" style="fill-rule:evenodd;clip-rule:evenodd;stroke-linejoin:round;stroke-miterlimit:2;"><g><path d="M17.416,4.172l0,-4.172l-17.416,0l0,34.833c4.986,0 9.485,-2.1 12.661,-5.462c-4.431,-2.155 -7.488,-6.7 -7.488,-11.954c0,-6.981 5.397,-12.712 12.243,-13.244Zm6.844,1.293c4.427,2.155 7.481,6.7 7.481,11.951c0,6.978 -5.392,12.707 -12.234,13.243l0,4.173l17.416,0l0,-34.833c-4.987,0 -9.487,2.1 -12.664,5.465Z" style="fill:#0066b3;"/><path d="M27.524,17.416c0,-5.004 -4.063,-9.066 -9.066,-9.066c-5.004,0 -9.066,4.063 -9.066,9.066c0,5.004 4.063,9.066 9.066,9.066c5.004,0 9.066,-4.063 9.066,-9.066Z" style="fill:#0066b3;"/><path d="M2.636,45c-0.38,0 -0.73,-0.061 -1.05,-0.183c-0.321,-0.122 -0.6,-0.295 -0.837,-0.518c-0.237,-0.224 -0.421,-0.485 -0.552,-0.783c-0.131,-0.298 -0.197,-0.626 -0.197,-0.983c0,-0.357 0.066,-0.685 0.197,-0.983c0.131,-0.298 0.315,-0.559 0.552,-0.783c0.237,-0.224 0.516,-0.396 0.837,-0.518c0.321,-0.122 0.671,-0.183 1.05,-0.183c0.384,0 0.735,0.061 1.054,0.183c0.319,0.122 0.595,0.295 0.83,0.518c0.235,0.224 0.419,0.485 0.552,0.783c0.133,0.298 0.2,0.626 0.2,0.983c-0,0.357 -0.067,0.686 -0.2,0.986c-0.133,0.3 -0.317,0.561 -0.552,0.783c-0.235,0.221 -0.512,0.393 -0.83,0.515c-0.319,0.122 -0.67,0.183 -1.054,0.183Zm0,-1.111c0.181,0 0.349,-0.032 0.505,-0.095c0.156,-0.063 0.291,-0.155 0.407,-0.274c0.115,-0.12 0.206,-0.263 0.271,-0.43c0.066,-0.167 0.098,-0.352 0.098,-0.556c0,-0.208 -0.033,-0.394 -0.098,-0.559c-0.066,-0.165 -0.156,-0.307 -0.271,-0.427c-0.115,-0.12 -0.251,-0.211 -0.407,-0.274c-0.156,-0.063 -0.324,-0.095 -0.505,-0.095c-0.181,0 -0.349,0.032 -0.505,0.095c-0.156,0.063 -0.291,0.155 -0.407,0.274c-0.115,0.12 -0.206,0.262 -0.271,0.427c-0.066,0.165 -0.098,0.351 -0.098,0.559c0,0.203 0.033,0.389 0.098,0.556c0.066,0.167 0.156,0.311 0.271,0.43c0.115,0.12 0.251,0.211 0.407,0.274c0.156,0.063 0.324,0.095 0.505,0.095Z" style="fill:#0066b3;fill-rule:nonzero;"/><path d="M5.673,42.343l0.508,-1.762l0.183,0.732c-0.226,0 -0.411,-0.067 -0.556,-0.2c-0.145,-0.133 -0.217,-0.313 -0.217,-0.539c0,-0.23 0.073,-0.415 0.22,-0.552c0.147,-0.138 0.331,-0.207 0.552,-0.207c0.221,0 0.404,0.069 0.549,0.207c0.145,0.138 0.217,0.322 0.217,0.552c0,0.063 -0.005,0.128 -0.014,0.193c-0.009,0.066 -0.028,0.142 -0.058,0.23c-0.029,0.088 -0.078,0.207 -0.146,0.356l-0.434,0.989l-0.806,0Z" style="fill:#0066b3;fill-rule:nonzero;"/><path d="M9.041,42.242l2.189,0l0,1.037l-2.189,0l0,-1.037Zm0.095,2.663l-1.342,0l0,-4.744l3.721,0l0,1.037l-2.379,0l0,3.707Z" style="fill:#0066b3;fill-rule:nonzero;"/><rect x="12.145" y="40.161" width="1.342" height="4.744" style="fill:#0066b3;fill-rule:nonzero;"/><path d="M15.452,44.905l0,-3.68l-1.457,0l0,-1.064l4.249,0l0,1.064l-1.45,0l0,3.68l-1.342,0Z" style="fill:#0066b3;fill-rule:nonzero;"/><path d="M18.746,44.905l0,-4.744l1.105,0l2.616,3.158l-0.522,0l0,-3.158l1.315,0l0,4.744l-1.105,0l-2.616,-3.158l0.522,0l0,3.158l-1.315,0Z" style="fill:#0066b3;fill-rule:nonzero;"/><path d="M25.442,41.998l2.203,0l0,1.003l-2.203,0l0,-1.003Zm0.095,1.871l2.48,0l0,1.037l-3.809,0l0,-4.744l3.721,0l0,1.037l-2.392,0l0,2.67Z" style="fill:#0066b3;fill-rule:nonzero;"/><path d="M30.43,45c-0.389,0 -0.762,-0.049 -1.122,-0.146c-0.359,-0.097 -0.652,-0.223 -0.878,-0.376l0.441,-0.989c0.212,0.136 0.457,0.247 0.735,0.335c0.278,0.088 0.555,0.132 0.83,0.132c0.185,0 0.334,-0.017 0.447,-0.051c0.113,-0.034 0.195,-0.079 0.247,-0.136c0.052,-0.056 0.078,-0.123 0.078,-0.2c0,-0.108 -0.05,-0.194 -0.149,-0.258c-0.099,-0.063 -0.228,-0.115 -0.386,-0.156c-0.158,-0.041 -0.333,-0.081 -0.525,-0.122c-0.192,-0.041 -0.384,-0.093 -0.576,-0.156c-0.192,-0.063 -0.367,-0.146 -0.525,-0.247c-0.158,-0.102 -0.287,-0.235 -0.386,-0.4c-0.099,-0.165 -0.149,-0.374 -0.149,-0.627c0,-0.285 0.078,-0.542 0.234,-0.773c0.156,-0.23 0.39,-0.416 0.701,-0.556c0.312,-0.14 0.7,-0.21 1.166,-0.21c0.312,0 0.618,0.035 0.918,0.105c0.3,0.07 0.568,0.173 0.803,0.308l-0.413,0.996c-0.226,-0.122 -0.45,-0.213 -0.671,-0.274c-0.221,-0.061 -0.436,-0.091 -0.644,-0.091c-0.185,0 -0.334,0.019 -0.447,0.058c-0.113,0.038 -0.194,0.089 -0.244,0.152c-0.05,0.063 -0.075,0.136 -0.075,0.217c0,0.104 0.049,0.186 0.146,0.247c0.097,0.061 0.226,0.111 0.386,0.149c0.16,0.038 0.337,0.078 0.529,0.119c0.192,0.041 0.384,0.091 0.576,0.152c0.192,0.061 0.367,0.142 0.525,0.244c0.158,0.102 0.286,0.235 0.383,0.4c0.097,0.165 0.146,0.372 0.146,0.62c0,0.276 -0.078,0.53 -0.234,0.762c-0.156,0.233 -0.389,0.419 -0.698,0.559c-0.309,0.14 -0.699,0.21 -1.169,0.21Z" style="fill:#0066b3;fill-rule:nonzero;"/><path d="M34.815,45c-0.389,0 -0.762,-0.049 -1.122,-0.146c-0.359,-0.097 -0.652,-0.223 -0.878,-0.376l0.441,-0.989c0.212,0.136 0.457,0.247 0.735,0.335c0.278,0.088 0.555,0.132 0.83,0.132c0.185,0 0.334,-0.017 0.447,-0.051c0.113,-0.034 0.195,-0.079 0.247,-0.136c0.052,-0.056 0.078,-0.123 0.078,-0.2c0,-0.108 -0.05,-0.194 -0.149,-0.258c-0.099,-0.063 -0.228,-0.115 -0.386,-0.156c-0.158,-0.041 -0.333,-0.081 -0.525,-0.122c-0.192,-0.041 -0.384,-0.093 -0.576,-0.156c-0.192,-0.063 -0.367,-0.146 -0.525,-0.247c-0.158,-0.102 -0.287,-0.235 -0.386,-0.4c-0.099,-0.165 -0.149,-0.374 -0.149,-0.627c0,-0.285 0.078,-0.542 0.234,-0.773c0.156,-0.23 0.39,-0.416 0.701,-0.556c0.312,-0.14 0.7,-0.21 1.166,-0.21c0.312,0 0.618,0.035 0.918,0.105c0.3,0.07 0.568,0.173 0.803,0.308l-0.413,0.996c-0.226,-0.122 -0.45,-0.213 -0.671,-0.274c-0.221,-0.061 -0.436,-0.091 -0.644,-0.091c-0.185,0 -0.334,0.019 -0.447,0.058c-0.113,0.038 -0.194,0.089 -0.244,0.152c-0.05,0.063 -0.075,0.136 -0.075,0.217c0,0.104 0.049,0.186 0.146,0.247c0.097,0.061 0.226,0.111 0.386,0.149c0.16,0.038 0.337,0.078 0.529,0.119c0.192,0.041 0.384,0.091 0.576,0.152c0.192,0.061 0.367,0.142 0.525,0.244c0.158,0.102 0.286,0.235 0.383,0.4c0.097,0.165 0.146,0.372 0.146,0.62c0,0.276 -0.078,0.53 -0.234,0.762c-0.156,0.233 -0.389,0.419 -0.698,0.559c-0.309,0.14 -0.699,0.21 -1.169,0.21Z" style="fill:#0066b3;fill-rule:nonzero;"/></g></svg>