<?xml version="1.0" encoding="UTF-8" standalone="no"?><!DOCTYPE svg PUBLIC "-//W3C//DTD SVG 1.1//EN" "http://www.w3.org/Graphics/SVG/1.1/DTD/svg11.dtd"><svg width="321px" height="45px" version="1.1" xmlns="http://www.w3.org/2000/svg" xmlns:xlink="http://www.w3.org/1999/xlink" xml:space="preserve" xmlns:serif="http://www.serif.com/" style="fill-rule:evenodd;clip-rule:evenodd;stroke-linejoin:round;stroke-miterlimit:2;"><path d="M22.882,45c-3.294,0 -6.333,-0.529 -9.118,-1.588c-2.784,-1.059 -5.206,-2.559 -7.265,-4.5c-2.059,-1.941 -3.657,-4.206 -4.794,-6.794c-1.137,-2.588 -1.706,-5.431 -1.706,-8.529c0,-3.098 0.569,-5.941 1.706,-8.529c1.137,-2.588 2.735,-4.853 4.794,-6.794c2.059,-1.941 4.48,-3.441 7.265,-4.5c2.784,-1.059 5.824,-1.588 9.118,-1.588c3.333,0 6.382,0.529 9.147,1.588c2.765,1.059 5.167,2.559 7.206,4.5c2.039,1.941 3.637,4.206 4.794,6.794c1.157,2.588 1.735,5.431 1.735,8.529c-0,3.098 -0.578,5.951 -1.735,8.559c-1.157,2.608 -2.755,4.873 -4.794,6.794c-2.039,1.922 -4.441,3.412 -7.206,4.471c-2.765,1.059 -5.814,1.588 -9.147,1.588Zm0,-9.647c1.569,0 3.029,-0.275 4.382,-0.824c1.353,-0.549 2.529,-1.343 3.529,-2.382c1,-1.039 1.784,-2.284 2.353,-3.735c0.569,-1.451 0.853,-3.059 0.853,-4.824c0,-1.804 -0.284,-3.422 -0.853,-4.853c-0.569,-1.431 -1.353,-2.667 -2.353,-3.706c-1,-1.039 -2.176,-1.833 -3.529,-2.382c-1.353,-0.549 -2.814,-0.824 -4.382,-0.824c-1.569,0 -3.029,0.275 -4.382,0.824c-1.353,0.549 -2.529,1.343 -3.529,2.382c-1,1.039 -1.784,2.275 -2.353,3.706c-0.569,1.431 -0.853,3.049 -0.853,4.853c0,1.765 0.284,3.373 0.853,4.824c0.569,1.451 1.353,2.696 2.353,3.735c1,1.039 2.176,1.833 3.529,2.382c1.353,0.549 2.814,0.824 4.382,0.824Z" style="fill:#0066b3;fill-rule:nonzero;"/><path d="M49.235,21.941l4.412,-15.294l1.588,6.353c-1.961,0 -3.569,-0.578 -4.824,-1.735c-1.255,-1.157 -1.882,-2.716 -1.882,-4.676c0,-2 0.637,-3.598 1.912,-4.794c1.275,-1.196 2.873,-1.794 4.794,-1.794c1.922,0 3.51,0.598 4.765,1.794c1.255,1.196 1.882,2.794 1.882,4.794c0,0.549 -0.039,1.108 -0.118,1.676c-0.078,0.569 -0.245,1.235 -0.5,2c-0.255,0.765 -0.676,1.794 -1.265,3.088l-3.765,8.588l-7,0Z" style="fill:#0066b3;fill-rule:nonzero;"/><path d="M78.471,21.059l19,0l0,9l-19,0l0,-9Zm0.824,23.118l-11.647,0l0,-41.176l32.294,0l0,9l-20.647,0l0,32.176Z" style="fill:#0066b3;fill-rule:nonzero;"/><rect x="105.412" y="3" width="11.647" height="41.176" style="fill:#0066b3;fill-rule:nonzero;"/><path d="M134.118,44.176l0,-31.941l-12.647,0l0,-9.235l36.882,0l0,9.235l-12.588,0l0,31.941l-11.647,0Z" style="fill:#0066b3;fill-rule:nonzero;"/><path d="M162.706,44.176l0,-41.176l9.588,0l22.706,27.412l-4.529,0l0,-27.412l11.412,0l0,41.176l-9.588,0l-22.706,-27.412l4.529,0l0,27.412l-11.412,0Z" style="fill:#0066b3;fill-rule:nonzero;"/><path d="M220.824,18.941l19.118,0l0,8.706l-19.118,0l0,-8.706Zm0.824,16.235l21.529,0l0,9l-33.059,0l0,-41.176l32.294,0l0,9l-20.765,0l0,23.176Z" style="fill:#0066b3;fill-rule:nonzero;"/><path d="M264.118,45c-3.373,0 -6.618,-0.422 -9.735,-1.265c-3.118,-0.843 -5.657,-1.931 -7.618,-3.265l3.824,-8.588c1.843,1.176 3.971,2.147 6.382,2.912c2.412,0.765 4.814,1.147 7.206,1.147c1.608,0 2.902,-0.147 3.882,-0.441c0.98,-0.294 1.696,-0.686 2.147,-1.176c0.451,-0.49 0.676,-1.069 0.676,-1.735c0,-0.941 -0.431,-1.686 -1.294,-2.235c-0.863,-0.549 -1.98,-1 -3.353,-1.353c-1.373,-0.353 -2.892,-0.706 -4.559,-1.059c-1.667,-0.353 -3.333,-0.804 -5,-1.353c-1.667,-0.549 -3.186,-1.265 -4.559,-2.147c-1.373,-0.882 -2.49,-2.039 -3.353,-3.471c-0.863,-1.431 -1.294,-3.245 -1.294,-5.441c0,-2.471 0.676,-4.706 2.029,-6.706c1.353,-2 3.382,-3.608 6.088,-4.824c2.706,-1.216 6.078,-1.824 10.118,-1.824c2.706,0 5.363,0.304 7.971,0.912c2.608,0.608 4.931,1.5 6.971,2.676l-3.588,8.647c-1.961,-1.059 -3.902,-1.853 -5.824,-2.382c-1.922,-0.529 -3.784,-0.794 -5.588,-0.794c-1.608,0 -2.902,0.167 -3.882,0.5c-0.98,0.333 -1.686,0.775 -2.118,1.324c-0.431,0.549 -0.647,1.176 -0.647,1.882c0,0.902 0.422,1.618 1.265,2.147c0.843,0.529 1.961,0.961 3.353,1.294c1.392,0.333 2.922,0.676 4.588,1.029c1.667,0.353 3.333,0.794 5,1.324c1.667,0.529 3.186,1.235 4.559,2.118c1.373,0.882 2.48,2.039 3.324,3.471c0.843,1.431 1.265,3.225 1.265,5.382c0,2.392 -0.676,4.598 -2.029,6.618c-1.353,2.02 -3.373,3.637 -6.059,4.853c-2.686,1.216 -6.069,1.824 -10.147,1.824Z" style="fill:#0066b3;fill-rule:nonzero;"/><path d="M302.176,45c-3.373,0 -6.618,-0.422 -9.735,-1.265c-3.118,-0.843 -5.657,-1.931 -7.618,-3.265l3.824,-8.588c1.843,1.176 3.971,2.147 6.382,2.912c2.412,0.765 4.814,1.147 7.206,1.147c1.608,0 2.902,-0.147 3.882,-0.441c0.98,-0.294 1.696,-0.686 2.147,-1.176c0.451,-0.49 0.676,-1.069 0.676,-1.735c0,-0.941 -0.431,-1.686 -1.294,-2.235c-0.863,-0.549 -1.98,-1 -3.353,-1.353c-1.373,-0.353 -2.892,-0.706 -4.559,-1.059c-1.667,-0.353 -3.333,-0.804 -5,-1.353c-1.667,-0.549 -3.186,-1.265 -4.559,-2.147c-1.373,-0.882 -2.49,-2.039 -3.353,-3.471c-0.863,-1.431 -1.294,-3.245 -1.294,-5.441c0,-2.471 0.676,-4.706 2.029,-6.706c1.353,-2 3.382,-3.608 6.088,-4.824c2.706,-1.216 6.078,-1.824 10.118,-1.824c2.706,0 5.363,0.304 7.971,0.912c2.608,0.608 4.931,1.5 6.971,2.676l-3.588,8.647c-1.961,-1.059 -3.902,-1.853 -5.824,-2.382c-1.922,-0.529 -3.784,-0.794 -5.588,-0.794c-1.608,0 -2.902,0.167 -3.882,0.5c-0.98,0.333 -1.686,0.775 -2.118,1.324c-0.431,0.549 -0.647,1.176 -0.647,1.882c0,0.902 0.422,1.618 1.265,2.147c0.843,0.529 1.961,0.961 3.353,1.294c1.392,0.333 2.922,0.676 4.588,1.029c1.667,0.353 3.333,0.794 5,1.324c1.667,0.529 3.186,1.235 4.559,2.118c1.373,0.882 2.48,2.039 3.324,3.471c0.843,1.431 1.265,3.225 1.265,5.382c0,2.392 -0.676,4.598 -2.029,6.618c-1.353,2.02 -3.373,3.637 -6.059,4.853c-2.686,1.216 -6.069,1.824 -10.147,1.824Z" style="fill:#0066b3;fill-rule:nonzero;"/></svg>